<svg id="Warstwa_2" data-name="Warstwa 2" xmlns="http://www.w3.org/2000/svg" viewBox="0 0 490.26 721.44"><defs><style>.cls-1{fill:#fff;}.cls-2{fill:#1a1c20;}.cls-3{fill:#4f5562;}.cls-4{fill:none;}.cls-5{fill:#1c00df;}.cls-6{fill:#33353a;}.cls-7{fill:#6f7584;}.cls-11,.cls-8{fill:#f4f4f4;}.cls-8{opacity:0.96;isolation:isolate;}.cls-9{fill:#cf7500;}.cls-10{fill:#ff9103;}.cls-12{fill:#ffaf47;}</style></defs><title>IconArcade</title><rect class="cls-1" x="51.04" y="706.13" width="15.25" height="15.25"/><rect class="cls-2" x="27.43" y="473.76" width="337.5" height="232.07"/><polygon class="cls-3" points="364.87 473.75 27.61 473.69 0.36 453.02 341.67 453.02 364.87 473.75"/><line class="cls-4" x1="27.49" y1="473.88" x2="27.26" y2="473.7"/><polyline class="cls-4" points="364.6 473.94 364.94 473.81 341.37 453.02 341.32 452.97"/><polygon class="cls-2" points="341.65 453.02 0 452.97 0 422.5 341.65 422.51 341.65 453.02"/><path class="cls-5" d="M353.66,119.09h-.93V57.48h0V31.81a4.79,4.79,0,0,1,.11-1,7.09,7.09,0,0,1,.26,2v85.77Z" transform="translate(-204.46 -17.94)"/><path class="cls-5" d="M438.13,57.48V89.72L353.13,58l-.37-.13v-26a4.79,4.79,0,0,1,.11-1,7.09,7.09,0,0,1,.26,2V57.48Z" transform="translate(-204.46 -17.94)"/><polygon class="cls-2" points="450.52 116 164.31 116 148.31 101.15 428.24 100.96 450.52 116"/><polygon class="cls-6" points="436.08 116 164.31 116 109.12 376.76 385.07 377.28 436.08 116"/><polygon class="cls-5" points="490.2 53.1 428.39 20.99 428.39 7.65 490.2 39.76 490.2 53.1"/><polygon class="cls-2" points="450.59 116.47 401.05 377.22 358.01 422.31 357.97 452.94 381.42 473.71 381.42 489.25 381.32 701.65 378.44 708.81 474.1 587.85 474.18 131.88 450.65 115.94 450.59 116.47"/><line class="cls-4" x1="1.7" y1="422.5" x2="1.7" y2="422.5"/><line class="cls-4" x1="1.7" y1="422.5" x2="341.65" y2="422.51"/><polygon class="cls-7" points="385.07 377.28 109.42 376.76 1.71 422.51 341.65 422.51 385.07 377.28"/><line class="cls-4" x1="490.26" y1="142.89" x2="474.05" y2="131.94"/><path class="cls-8" d="M414.93,341h-40l32.79-154.12h40l-8.45,39.76-3.14,14.79-8.5,40-4.22,19.88Zm-12.71-22.31,11.64-54.77,1.08-5.08,10.56-49.69,1.08-5.08h-5.05L396.14,323.54h5.08Z" transform="translate(-204.46 -17.94)"/><path class="cls-8" d="M572.59,226.81h-40l-3.19,15L521,281.56l-4.23,19.88-8.5,40H468.53l24.36-114.62H453.14l8.45-39.76H581.07Zm-5.41-22.31H467.79l-1,4.86h47.26l-24.32,114.4h4.8l1.08-5.08,11.64-54.77,1-4.86,10.56-49.69h47.26Z" transform="translate(-204.46 -17.94)"/><line class="cls-4" x1="154.15" y1="9.82" x2="165.03" y2="13.9"/><line class="cls-4" x1="148.66" y1="39.55" x2="238.21" y2="39.55"/><path class="cls-9" d="M632.86,25.59v31.9h-.16V25.26a7.32,7.32,0,1,0-14.64,0V57.49H438.14l-.13-.06L353.2,56.17l-.38-26.33a1,1,0,0,0-.09-.21V25.55a7.5,7.5,0,0,0-15,0v93L353,133.41,297.65,394.64h0l-56.24,42.14h.31v30.43h.05L205,482.44l12.11,9.09.13.11v238a8.46,8.46,0,0,0-.25,1.94,7.8,7.8,0,0,0,7.8,7.8H577.84a7.79,7.79,0,0,0,7.69-6.61l109.16-138V57.69ZM353.07,57.47h0ZM678.53,605.74,585.66,723.18V507.24h.11V491.71L562.33,471V440.46h-.09l43.17-45.24L654.6,133.94H638.74L589.53,395.22l-43.41,45.24V471l23.28,20.78v232H232.53V491.42h-.32L205,470.87h0v-30l108.82-46.21,55.39-261.27h-.11l-15.2-14.34h279l45.61,30.82Z" transform="translate(-204.46 -17.94)"/><path class="cls-10" d="M438,57.43,369.53,31.87l-10.88-4.08-5.88-2.21v4.08l.09.22.38,26.32Z" transform="translate(-204.46 -17.94)"/><line class="cls-4" x1="148.74" y1="38.23" x2="148.27" y2="38.23"/><line class="cls-4" x1="236.93" y1="39.55" x2="233.55" y2="39.49"/><line class="cls-4" x1="148.36" y1="11.91" x2="148.27" y2="5.99"/><path class="cls-11" d="M422.05,75.19a9.6,9.6,0,0,1,3.78.76,9.86,9.86,0,0,1,5.23,5.24,9.42,9.42,0,0,1,.76,3.78v20.46h-3.43V84.54a1.34,1.34,0,0,1,0-.4,6.46,6.46,0,0,0-.72-2.17,6.59,6.59,0,0,0-1.39-1.76,6.07,6.07,0,0,0-4.18-1.58h-4.9a6.19,6.19,0,0,0-2.29.41A6,6,0,0,0,413,80.21,6.59,6.59,0,0,0,411.59,82a6.1,6.1,0,0,0-.67,2.17,1.61,1.61,0,0,0,0,.31.21.21,0,0,1,0,.11v20.87h-3.43V85a9.42,9.42,0,0,1,.76-3.78,9.87,9.87,0,0,1,2.09-3.13,9.59,9.59,0,0,1,6.93-2.87ZM427.43,85V92.1H411.75V84.94a5.26,5.26,0,0,1,.43-2.07,6.28,6.28,0,0,1,1.16-1.72A5,5,0,0,1,415,80a5.3,5.3,0,0,1,2.11-.42h4.92a5,5,0,0,1,2,.38,5.58,5.58,0,0,1,1.61,1,4.89,4.89,0,0,1,1.15,1.49,5.27,5.27,0,0,1,.59,1.85.69.69,0,0,1,0,.35V85ZM424,93.14h3.43v12.29H424V96.57h-8.82v8.86h-3.43V93.14ZM424,85a1.82,1.82,0,0,0-.59-1.4,1.86,1.86,0,0,0-1.36-.57h-4.91a1.88,1.88,0,0,0-1.39.57,1.92,1.92,0,0,0-.57,1.4v3.68H424Z" transform="translate(-204.46 -17.94)"/><path class="cls-11" d="M449,75.06a.79.79,0,0,1,.48,0,7.81,7.81,0,0,1,1.93.26,8.85,8.85,0,0,1,1.93.74,8.63,8.63,0,0,1,1.7,1.09h.08a3.9,3.9,0,0,0,.4.31,10.3,10.3,0,0,1,2.91,4.6v0l.13.52h0a6.3,6.3,0,0,1,.21,1.61,9.4,9.4,0,0,1,0,1.3,2.12,2.12,0,0,1-.06.57,2.64,2.64,0,0,1-.11.56v.09a.61.61,0,0,0,0,.19.34.34,0,0,1,0,.2.25.25,0,0,0,0,.17v.18l-.13.39a2.32,2.32,0,0,1-.18.39.48.48,0,0,1,0,.17l-.09.18a7.85,7.85,0,0,1-1.26,2.17,9.57,9.57,0,0,1-4.6,3.21l5.6,11.3H449.2l-5.35-10.77h-1.32v10.77h-7.82V75Zm6.34,9.11-.06-.39a.63.63,0,0,0-.07-.35,6,6,0,0,0-.3-1l-.13-.26a1.92,1.92,0,0,0-.18-.31c-.06-.1-.12-.2-.17-.3l-.13-.26a2,2,0,0,0-.28-.37,1.76,1.76,0,0,1-.29-.37c-.06,0-.08,0-.08-.08l-.13-.13h0a3.22,3.22,0,0,0-.43-.39l-.09-.09a7,7,0,0,0-1.17-.73l-.31-.14-.26-.12-.32-.09-.33-.09a6.4,6.4,0,0,0-1.52-.21h-11V102h1V91.19h6.73L451.23,102h1.08L447,91.17h2.13a6.29,6.29,0,0,0,2.39-.43l.17-.09A5.56,5.56,0,0,0,454,88.88a.87.87,0,0,0,.17-.22h0a.87.87,0,0,0,.18-.26l.06-.11a.17.17,0,0,1,.07-.11.6.6,0,0,0,.17-.22v-.09h0l.08-.2.09-.19v-.07a.1.1,0,0,1,.05-.06.35.35,0,0,1,.08-.22V87L455,87a.09.09,0,0,1,0-.07.06.06,0,0,0,0-.06,5,5,0,0,0,.28-1.26,4.72,4.72,0,0,0,0-1.3Zm-1,0a1,1,0,0,1,0,.35v.78a.67.67,0,0,1,0,.2v.28a.54.54,0,0,1,0,.18.49.49,0,0,0,0,.17,2,2,0,0,1-.17.52c-.06.17-.1.29-.13.35a1.26,1.26,0,0,1-.22.43,2.35,2.35,0,0,1-.48.74,5.34,5.34,0,0,1-4.25,2.09h-9.95V79.48h9.95a4.39,4.39,0,0,1,1.76.31,5,5,0,0,1,2.95,2.45,5.75,5.75,0,0,1,.54,1.9Zm-3.39.7a1.91,1.91,0,0,0-.56-1.39,1.89,1.89,0,0,0-1.39-.57h-6.5v3.91h6.52A1.88,1.88,0,0,0,451,84.87Z" transform="translate(-204.46 -17.94)"/><path class="cls-11" d="M484.44,97.61v7.87H470.71a9.59,9.59,0,0,1-3.8-.76,9.94,9.94,0,0,1-5.22-5.24,9.65,9.65,0,0,1-.76-3.82V84.87a9.78,9.78,0,0,1,.76-3.78A10.1,10.1,0,0,1,463.8,78a9.93,9.93,0,0,1,3.11-2.1,9.55,9.55,0,0,1,3.8-.76h13.73v7.82H470.71a2,2,0,0,0-1.37.56,1.9,1.9,0,0,0-.59,1.39V95.65a1.9,1.9,0,0,0,.59,1.39,2,2,0,0,0,1.37.56Zm-2,4.43v-1H470.67q-5.39,0-5.39-5.39V84.87q0-5.39,5.39-5.39h11.86v-1H470.76q-6.35,0-6.35,6.34V95.65q0,6.39,6.35,6.38Z" transform="translate(-204.46 -17.94)"/><path class="cls-11" d="M501,75.19a9.6,9.6,0,0,1,3.78.76A9.88,9.88,0,0,1,510,81.19a9.46,9.46,0,0,1,.76,3.78v20.46h-3.44V84.54a1.34,1.34,0,0,1,0-.4,6.16,6.16,0,0,0-.71-2.17,6.76,6.76,0,0,0-1.39-1.76,6.12,6.12,0,0,0-4.18-1.58h-4.9a6.3,6.3,0,0,0-4.23,1.58A6.76,6.76,0,0,0,490.54,82a6.11,6.11,0,0,0-.68,2.17,1.61,1.61,0,0,0,0,.31.21.21,0,0,1,0,.11v20.87h-3.43V85a9.6,9.6,0,0,1,.76-3.78,10,10,0,0,1,2.08-3.13,9.64,9.64,0,0,1,6.93-2.87ZM506.38,85V92.1H490.69V84.94a5.1,5.1,0,0,1,.44-2.07,6.1,6.1,0,0,1,1.15-1.72A5.27,5.27,0,0,1,494,80a5.38,5.38,0,0,1,2.12-.42H501a5.38,5.38,0,0,1,4.77,2.87,5.26,5.26,0,0,1,.58,1.85.7.7,0,0,1,.05.35V85ZM503,93.14h3.43v12.29H503V96.57h-8.82v8.86h-3.44V93.14ZM503,85a2,2,0,0,0-2-2H496a1.93,1.93,0,0,0-2,1.91v3.77h8.82Z" transform="translate(-204.46 -17.94)"/><path class="cls-11" d="M537.14,84.75V95.53a9.48,9.48,0,0,1-.76,3.82,9.88,9.88,0,0,1-5.24,5.24,9.58,9.58,0,0,1-3.82.76H513.63V75h13.69a9.78,9.78,0,0,1,6.95,2.86A9.77,9.77,0,0,1,536.38,81,9.42,9.42,0,0,1,537.14,84.75Zm-3.43,10.78V84.75q0-6.34-6.39-6.34H517.07v23.46h10.25q6.39,0,6.39-6.34Zm-1-10.81v10.8c0,3.6-1.8,5.39-5.4,5.39H518V79.36h9.33q5.45,0,5.44,5.36Zm-3.43,10.81V84.75a1.88,1.88,0,0,0-.59-1.37,1.92,1.92,0,0,0-1.41-.58h-5.87V97.48h5.87a2,2,0,0,0,1.41-.56,1.85,1.85,0,0,0,.63-1.39Z" transform="translate(-204.46 -17.94)"/><path class="cls-11" d="M563.34,105.39H539.83V75h23.51v7.85H547.7v3h11.73v7.82H547.7V97.6h15.64ZM544.26,102h17.12v-1H544.26V90.18h13.21v-1H544.26V79.36h17.12v-1H543.26v23.51Z" transform="translate(-204.46 -17.94)"/><path class="cls-10" d="M380.87,408a.33.33,0,0,1,0,.14,2.57,2.57,0,0,1-.78,1.62c-2.14,2.27-8.33,3.92-15.63,3.92s-13.46-1.63-15.62-3.92a2.56,2.56,0,0,1-.81-1.72h0c0-3.14,7.35-5.67,16.43-5.67,8.88,0,16.11,2.43,16.41,5.48v.05A.17.17,0,0,1,380.87,408Z" transform="translate(-204.46 -17.94)"/><line class="cls-4" x1="104.02" y1="397.39" x2="104.02" y2="397.21"/><path class="cls-9" d="M380.85,408.15a2.59,2.59,0,0,1-.78,1.62c-2.14,2.27-8.33,3.92-15.63,3.92s-13.46-1.63-15.62-3.92a2.56,2.56,0,0,1-.81-1.72v3.47c0,3.14,7.35,5.67,16.43,5.67s16.3-2.48,16.43-5.59v-.08Z" transform="translate(-204.46 -17.94)"/><path class="cls-10" d="M419.74,408a.33.33,0,0,1,0,.14,2.65,2.65,0,0,1-.79,1.62c-2.14,2.27-8.33,3.92-15.63,3.92s-13.46-1.63-15.61-3.92a2.62,2.62,0,0,1-.82-1.72h0c0-3.14,7.35-5.67,16.43-5.67,8.88,0,16.11,2.43,16.42,5.48v.05A.17.17,0,0,1,419.74,408Z" transform="translate(-204.46 -17.94)"/><path class="cls-9" d="M419.73,408.15a2.6,2.6,0,0,1-.79,1.62c-2.14,2.27-8.33,3.92-15.63,3.92s-13.46-1.63-15.61-3.92a2.62,2.62,0,0,1-.82-1.72v3.47c0,3.14,7.35,5.67,16.44,5.67s16.29-2.48,16.43-5.59v-3.45Z" transform="translate(-204.46 -17.94)"/><path class="cls-10" d="M363.7,420.87a.29.29,0,0,1,0,.13,2.63,2.63,0,0,1-.79,1.63c-2.13,2.27-8.33,3.91-15.63,3.91s-13.46-1.63-15.61-3.91a2.64,2.64,0,0,1-.82-1.73h0c0-3.14,7.35-5.68,16.43-5.68,8.88,0,16.12,2.44,16.42,5.48v.05A.24.24,0,0,1,363.7,420.87Z" transform="translate(-204.46 -17.94)"/><path class="cls-9" d="M363.69,421a2.63,2.63,0,0,1-.79,1.63c-2.13,2.27-8.33,3.91-15.63,3.91s-13.46-1.63-15.61-3.91a2.64,2.64,0,0,1-.82-1.73v3.47c0,3.14,7.35,5.67,16.44,5.67s16.29-2.48,16.43-5.59V421Z" transform="translate(-204.46 -17.94)"/><path class="cls-10" d="M402.53,420.87a.29.29,0,0,1,0,.13,2.63,2.63,0,0,1-.79,1.63c-2.13,2.27-8.32,3.91-15.63,3.91s-13.46-1.63-15.61-3.91a2.59,2.59,0,0,1-.81-1.73h0c0-3.14,7.35-5.68,16.42-5.68,8.88,0,16.12,2.44,16.42,5.48v.05A.24.24,0,0,1,402.53,420.87Z" transform="translate(-204.46 -17.94)"/><path class="cls-9" d="M402.53,421a2.63,2.63,0,0,1-.79,1.63c-2.13,2.27-8.32,3.91-15.63,3.91s-13.46-1.63-15.61-3.91a2.59,2.59,0,0,1-.81-1.73v3.47c0,3.14,7.35,5.67,16.42,5.67s16.3-2.48,16.43-5.59V421Z" transform="translate(-204.46 -17.94)"/><path class="cls-10" d="M518.71,409a.29.29,0,0,1,0,.13,2.6,2.6,0,0,1-.79,1.63c-2.13,2.27-8.32,3.92-15.62,3.92s-13.46-1.63-15.62-3.92a2.56,2.56,0,0,1-.81-1.72h0c0-3.14,7.35-5.67,16.43-5.67,8.88,0,16.11,2.43,16.41,5.48v.05A.17.17,0,0,1,518.71,409Z" transform="translate(-204.46 -17.94)"/><path class="cls-9" d="M518.7,409.16a2.6,2.6,0,0,1-.79,1.63c-2.13,2.27-8.32,3.92-15.62,3.92s-13.46-1.63-15.62-3.92a2.56,2.56,0,0,1-.81-1.72v3.47c0,3.14,7.35,5.67,16.43,5.67s16.3-2.48,16.42-5.59v-3.46Z" transform="translate(-204.46 -17.94)"/><path class="cls-10" d="M557.59,409a.29.29,0,0,1,0,.13,2.63,2.63,0,0,1-.79,1.63c-2.14,2.27-8.33,3.92-15.63,3.92s-13.46-1.63-15.61-3.92a2.62,2.62,0,0,1-.82-1.72h0c0-3.14,7.35-5.67,16.43-5.67,8.88,0,16.11,2.43,16.42,5.48v.05A.17.17,0,0,1,557.59,409Z" transform="translate(-204.46 -17.94)"/><path class="cls-9" d="M557.58,409.16a2.63,2.63,0,0,1-.79,1.63c-2.14,2.27-8.33,3.92-15.63,3.92s-13.46-1.63-15.61-3.92a2.62,2.62,0,0,1-.82-1.72v3.47c0,3.14,7.35,5.67,16.43,5.67s16.3-2.48,16.43-5.59v-3.46Z" transform="translate(-204.46 -17.94)"/><path class="cls-10" d="M501.53,421.87a.29.29,0,0,1,0,.13,2.74,2.74,0,0,1-.79,1.63c-2.14,2.26-8.33,3.91-15.63,3.91s-13.46-1.63-15.61-3.91a2.64,2.64,0,0,1-.82-1.73h0c0-3.15,7.35-5.68,16.43-5.68,8.88,0,16.11,2.44,16.42,5.48v.05A.24.24,0,0,1,501.53,421.87Z" transform="translate(-204.46 -17.94)"/><path class="cls-9" d="M501.53,422a2.74,2.74,0,0,1-.79,1.63c-2.14,2.26-8.33,3.91-15.63,3.91s-13.46-1.63-15.61-3.91a2.64,2.64,0,0,1-.82-1.73v3.47c0,3.14,7.35,5.67,16.43,5.67s16.3-2.48,16.44-5.59V422Z" transform="translate(-204.46 -17.94)"/><path class="cls-10" d="M540.42,421.87a.29.29,0,0,1,0,.13,2.63,2.63,0,0,1-.79,1.63c-2.13,2.26-8.32,3.91-15.63,3.91s-13.46-1.63-15.61-3.91a2.59,2.59,0,0,1-.81-1.73h0c0-3.15,7.35-5.68,16.42-5.68,8.88,0,16.12,2.44,16.42,5.48v.05A.24.24,0,0,1,540.42,421.87Z" transform="translate(-204.46 -17.94)"/><path class="cls-9" d="M540.41,422a2.63,2.63,0,0,1-.79,1.63c-2.13,2.26-8.32,3.91-15.63,3.91s-13.46-1.63-15.61-3.91a2.59,2.59,0,0,1-.81-1.73v3.47c0,3.14,7.35,5.67,16.42,5.67s16.3-2.48,16.43-5.59V422Z" transform="translate(-204.46 -17.94)"/><polyline class="cls-4" points="155.31 393.14 155.31 393.2 155.31 393.5"/><ellipse class="cls-9" cx="101.42" cy="398.75" rx="21.53" ry="8.48"/><ellipse class="cls-10" cx="101.46" cy="398.48" rx="17.95" ry="7.13"/><path class="cls-2" d="M303.61,403.4h2.79a.76.76,0,0,1,.76.76h0v11.46h-4.31V404.16a.76.76,0,0,1,.76-.76Z" transform="translate(-204.46 -17.94)"/><circle class="cls-12" cx="100.49" cy="385.98" r="3.85"/><ellipse class="cls-9" cx="242.7" cy="397.64" rx="21.53" ry="8.48"/><ellipse class="cls-10" cx="242.74" cy="397.37" rx="17.95" ry="7.13"/><path class="cls-2" d="M444.9,402.78h2.8a.76.76,0,0,1,.76.76h0V415h-4.31V403.54A.76.76,0,0,1,444.9,402.78Z" transform="translate(-204.46 -17.94)"/><circle class="cls-12" cx="241.77" cy="385.37" r="3.85"/></svg>