<svg id="Warstwa_2" data-name="Warstwa 2" xmlns="http://www.w3.org/2000/svg" viewBox="0 0 980.58 779.26"><defs><style>.cls-1{fill:#6f7584;}.cls-2{fill:#cf7500;}</style></defs><title>IconLight</title><polygon class="cls-1" points="105.79 623.24 66.71 662.32 66.71 663.28 0.04 729.96 0.04 779.24 239.62 779.24 239.62 493.48 137.55 592.45 105.79 623.24"/><path class="cls-1" d="M445.69,514.94l-26.42,25.57a30,30,0,0,1-2.26,2,46,46,0,0,1-63.21-2.35L327.19,513l.89-.86L277.18,457l-.79.77V779.19H516V447l-70.29,68Z" transform="translate(0.04)"/><path class="cls-1" d="M723.54,410.84l-21,20.36a36.34,36.34,0,0,1-34.4,9.12c-8-1.71-15.74-6.11-22.58-13.25L593.94,371.5l-41.37,40V779.23h239.7V344.09l-48.41,47Z" transform="translate(0.04)"/><path class="cls-1" d="M966.85,152.62l-.05-.09-14.15,50.91-.65,2.34L949.44,215,917.66,329.32l-53.75-54.76-34.86,33.85V779.26H980.54V103.66Z" transform="translate(0.04)"/><path class="cls-2" d="M859.67,29.63,744.77,59.27l55,56L672.86,241.69l-55.7-52.22a45.07,45.07,0,0,0-63.7-2.3l-.63.6L525.69,214h0L379.83,357.6l-49-59.68.45-.44L314.12,280l-9-9.66a45,45,0,0,0-11.22-8.77,43.61,43.61,0,0,0-52.15,6.18l-1,.88-27.14,26.25.06.06-201,194.88A41.85,41.85,0,0,0,11.79,549l.12.13h0a41.85,41.85,0,0,0,59,.76L270.49,356.44l50.91,55.13-.89.86,26.6,27.17A46,46,0,0,0,410.33,442c.77-.66,1.52-1.33,2.26-2L439,414.38h0L587.37,271,639,326.55c6.85,7.14,14.59,11.54,22.59,13.25a36.36,36.36,0,0,0,34.4-9.13l21-20.35,20.32-19.74,120-116.7L911,228.65,942.8,114.32,974.58,0Z" transform="translate(0.04)"/></svg>