<svg id="Warstwa_2" data-name="Warstwa 2" xmlns="http://www.w3.org/2000/svg" viewBox="0 0 980.53 779.24"><defs><style>.cls-1{fill:#6f7584;}.cls-2{fill:#cf7500;}</style></defs><title>Icon</title><polygon class="cls-1" points="105.75 623.24 66.67 662.32 66.67 663.28 0 729.96 0 779.24 239.58 779.24 239.58 493.48 137.51 592.45 105.75 623.24"/><path class="cls-1" d="M7155.42,7321.5,7129,7347.07c-.73.71-1.49,1.39-2.26,2a46,46,0,0,1-63.21-2.35l-26.61-27.17.89-.86-50.9-55.12-.79.77v321.41h239.58V7253.51l-70.29,68Z" transform="translate(-6709.73 -6806.56)"/><path class="cls-1" d="M7433.27,7217.4l-21,20.36a36.32,36.32,0,0,1-34.4,9.12c-8-1.71-15.74-6.11-22.58-13.25l-51.62-55.57-41.37,40v367.73H7502V7150.65l-48.41,47Z" transform="translate(-6709.73 -6806.56)"/><path class="cls-1" d="M7676.58,6959.18l-.05-.09L7662.38,7010l-.65,2.34-2.56,9.22-31.78,114.32-53.75-54.76-34.86,33.85v470.85h151.49v-675.6Z" transform="translate(-6709.73 -6806.56)"/><path class="cls-2" d="M7569.4,6836.19l-114.9,29.64,54.95,56-126.86,126.42-55.7-52.22a45.07,45.07,0,0,0-64.33-1.7l-27.14,26.24h0l-145.86,143.59-49-59.68.45-.44-17.16-17.53-9-9.66a45,45,0,0,0-11.22-8.77,43.6,43.6,0,0,0-52.15,6.18l-1,.88-27.14,26.25.06.06-201,194.88a41.86,41.86,0,0,0-.76,59.32h0a41.86,41.86,0,0,0,59,.76L6980.22,7163l50.91,55.13-.89.86,26.6,27.17a46,46,0,0,0,63.22,2.35c.77-.66,1.52-1.33,2.26-2l26.45-25.57,0,0,148.33-143.4,51.61,55.57c6.85,7.14,14.59,11.54,22.59,13.25a36.35,36.35,0,0,0,34.4-9.13l21-20.35,20.32-19.74L7567,6980.44l53.75,54.77,31.78-114.33,31.78-114.32Z" transform="translate(-6709.73 -6806.56)"/></svg>