<svg id="Warstwa_1" data-name="Warstwa 1" xmlns="http://www.w3.org/2000/svg" viewBox="0 0 2807.27 1055.72"><defs><style>.cls-1{fill:#6f7584;}.cls-2{fill:#cf7500;}.cls-3{font-size:292px;fill:#f4f4f4;font-family:Constantia-Bold, Constantia;font-weight:700;}.cls-4{letter-spacing:0.03em;}.cls-5{letter-spacing:0.07em;}.cls-6{letter-spacing:0.05em;}.cls-7{letter-spacing:0.05em;}.cls-8{letter-spacing:-0.02em;}.cls-9{letter-spacing:-0.02em;}.cls-10{letter-spacing:-0.02em;}</style></defs><title>Logo2</title><polygon class="cls-1" points="113.13 666.52 71.34 708.31 71.34 709.34 0.04 780.65 0.04 833.35 256.26 833.35 256.26 527.75 147.1 633.59 113.13 666.52"/><path class="cls-1" d="M6525.06,7240.67,6496.81,7268c-.78.75-1.6,1.48-2.42,2.13a49.19,49.19,0,0,1-67.6-2.51l-28.46-29.06,1-.92-54.44-58.94-.84.82v343.73h256.21V7168l-75.17,72.72Z" transform="translate(-6048.38 -6689.97)"/><path class="cls-1" d="M6822.21,7129.34l-22.46,21.77a38.85,38.85,0,0,1-36.79,9.76c-8.56-1.83-16.83-6.54-24.15-14.17l-55.2-59.43-44.25,42.78v393.26h256.35V7058l-51.77,50.26Z" transform="translate(-6048.38 -6689.97)"/><path class="cls-1" d="M7082.41,6853.19l-.05-.1-15.13,54.45-.7,2.5-2.74,9.86-34,122.26-57.48-58.56L6935,7019.8v503.55h162V6800.83Z" transform="translate(-6048.38 -6689.97)"/><path class="cls-2" d="M6967.79,6721.66l-122.88,31.7,58.77,59.89L6768,6948.44l-59.57-55.84a48.2,48.2,0,0,0-68.12-2.46l-.68.64-29,28.06h0l-156,153.56-52.4-63.82.48-.47-18.35-18.75-9.63-10.33a48.32,48.32,0,0,0-12-9.38,46.63,46.63,0,0,0-55.77,6.61l-1.07.94-29,28.07.06.07-215,208.41a44.76,44.76,0,0,0-.94,63.3.86.86,0,0,0,.13.14h0a44.77,44.77,0,0,0,63.1.81l213.44-206.84,54.44,59-1,.92,28.45,29.06a49.2,49.2,0,0,0,67.61,2.51c.82-.71,1.62-1.42,2.41-2.14l28.29-27.34h0l158.63-153.36,55.2,59.43c7.32,7.63,15.6,12.34,24.15,14.17a38.87,38.87,0,0,0,36.79-9.77l22.46-21.76,21.73-21.11,128.31-124.8,57.49,58.57,34-122.27,34-122.26Z" transform="translate(-6048.38 -6689.97)"/><text class="cls-3" transform="translate(1088.01 325.77)"><tspan class="cls-4">F</tspan><tspan class="cls-5" x="173.68" y="0">o</tspan><tspan class="cls-6" x="367.76" y="0">r</tspan><tspan class="cls-5" x="509.36" y="0">e</tspan><tspan class="cls-7" x="685.61" y="0">x</tspan><tspan class="cls-5" x="854.88" y="0"> </tspan><tspan x="944.01" y="0"> </tspan><tspan x="0" y="350.4">A</tspan><tspan class="cls-8" x="195.47" y="350.4">r</tspan><tspan x="317.81" y="350.4">cad</tspan><tspan class="cls-9" x="796.73" y="350.4">e</tspan><tspan x="946.72" y="350.4" xml:space="preserve"> I</tspan><tspan class="cls-10" x="1130.64" y="350.4">T</tspan></text><text x="-6048.38" y="-6689.97"/></svg>