<svg id="Warstwa_1" data-name="Warstwa 1" xmlns="http://www.w3.org/2000/svg" viewBox="0 0 2807.27 963.77"><defs><style>.cls-1{fill:#33353a;}.cls-2{fill:#cf7500;}.cls-3{font-size:251.78px;fill:#f4f4f4;font-family:Constantia-Bold, Constantia;font-weight:700;}.cls-4{letter-spacing:0.03em;}.cls-5{letter-spacing:0.07em;}.cls-6{letter-spacing:0.05em;}.cls-7{letter-spacing:0.05em;}.cls-8{letter-spacing:-0.02em;}.cls-9{letter-spacing:-0.02em;}.cls-10{letter-spacing:-0.02em;}</style></defs><title>LogoFinal</title><polygon class="cls-1" points="113.13 656.59 71.34 698.39 71.34 699.41 0.04 770.72 0.04 823.43 256.26 823.43 256.26 517.82 147.1 623.66 113.13 656.59"/><path class="cls-1" d="M6525.06,7230.74l-28.25,27.35c-.78.76-1.6,1.48-2.42,2.14a49.2,49.2,0,0,1-67.6-2.52l-28.46-29.05,1-.92-54.44-58.95-.84.82v343.73h256.21V7158l-75.17,72.72Z" transform="translate(-6048.38 -6689.97)"/><path class="cls-1" d="M6822.21,7119.41l-22.46,21.78a38.87,38.87,0,0,1-36.79,9.75c-8.56-1.83-16.83-6.53-24.15-14.17l-55.2-59.43-44.25,42.78v393.27h256.35V7048l-51.77,50.26Z" transform="translate(-6048.38 -6689.97)"/><path class="cls-1" d="M7082.41,6843.26l-.05-.09-15.13,54.44-.7,2.5-2.74,9.86-34,122.26-57.48-58.56-37.29,36.2v503.55h162V6790.9Z" transform="translate(-6048.38 -6689.97)"/><path class="cls-2" d="M6967.79,6721.66l-122.88,31.7,58.77,59.89L6768,6948.44l-59.57-55.84a48.2,48.2,0,0,0-68.12-2.46l-.68.64-29,28.06h0l-156,153.56-52.4-63.82.48-.47-18.35-18.75-9.63-10.33a48.32,48.32,0,0,0-12-9.38,46.63,46.63,0,0,0-55.77,6.61l-1.07.94-29,28.07.06.07-215,208.41a44.76,44.76,0,0,0-.94,63.3.86.86,0,0,0,.13.14h0a44.77,44.77,0,0,0,63.1.81l213.44-206.84,54.44,59-1,.92,28.45,29.06a49.2,49.2,0,0,0,67.61,2.51c.82-.71,1.62-1.42,2.41-2.14l28.29-27.34h0l158.63-153.36,55.2,59.43c7.32,7.63,15.6,12.34,24.15,14.17a38.87,38.87,0,0,0,36.79-9.77l22.46-21.76,21.73-21.11,128.31-124.8,57.49,58.57,34-122.27,34-122.26Z" transform="translate(-6048.38 -6689.97)"/><text class="cls-3" transform="translate(1222.36 334.35) scale(1.05 1)"><tspan class="cls-4">F</tspan><tspan class="cls-5" x="149.76" y="0">o</tspan><tspan class="cls-6" x="317.11" y="0">r</tspan><tspan class="cls-5" x="439.21" y="0">e</tspan><tspan class="cls-7" x="591.18" y="0">x</tspan><tspan class="cls-5" x="737.13" y="0"> </tspan><tspan x="813.99" y="0"> </tspan><tspan x="0" y="302.14">A</tspan><tspan class="cls-8" x="168.55" y="302.14">r</tspan><tspan x="274.04" y="302.14">cad</tspan><tspan class="cls-9" x="686.99" y="302.14">e</tspan><tspan x="816.33" y="302.14" xml:space="preserve"> I</tspan><tspan class="cls-10" x="974.92" y="302.14">T</tspan></text><text x="-6048.38" y="-6689.97"/></svg>