<svg id="Warstwa_1" data-name="Warstwa 1" xmlns="http://www.w3.org/2000/svg" viewBox="0 0 1360.75 902.11"><defs><style>.cls-1{fill:#fff;}.cls-2{fill:#1a1c20;}.cls-3{fill:#4f5562;}.cls-4{fill:none;}.cls-5{fill:#1c00df;}.cls-6{fill:#33353a;}.cls-7{fill:#6f7584;}.cls-10,.cls-8{fill:#f4f4f4;}.cls-9{fill:#cf7500;}.cls-10{opacity:0.96;}.cls-11{fill:#ff9103;}.cls-12{fill:#ffaf47;}</style></defs><title>LogoArcade</title><rect class="cls-1" x="170.1" y="886.8" width="15.25" height="15.25"/><rect class="cls-2" x="146.49" y="654.43" width="337.5" height="232.07"/><polygon class="cls-3" points="483.93 654.42 146.67 654.36 119.42 633.69 460.73 633.69 483.93 654.42"/><line class="cls-4" x1="146.55" y1="654.55" x2="146.32" y2="654.37"/><polyline class="cls-4" points="483.66 654.61 484 654.48 460.43 633.69 460.38 633.64"/><polygon class="cls-2" points="460.71 633.69 119.06 633.64 119.06 603.17 460.71 603.18 460.71 633.69"/><path class="cls-5" d="M6715.13,6834.22h-.93v-61.61h0v-25.67a4.35,4.35,0,0,1,.11-1,7.55,7.55,0,0,1,.26,2v78s0,.06,0,.1v7.67Z" transform="translate(-6446.87 -6552.4)"/><path class="cls-5" d="M6799.6,6772.61v32.24l-85-31.77-.37-.13v-26a4.35,4.35,0,0,1,.11-1,7.55,7.55,0,0,1,.26,2v24.66Z" transform="translate(-6446.87 -6552.4)"/><polygon class="cls-2" points="569.58 296.67 283.37 296.67 267.37 281.82 547.3 281.63 569.58 296.67"/><polygon class="cls-6" points="555.14 296.67 283.37 296.67 228.18 557.43 504.13 557.95 555.14 296.67"/><polygon class="cls-5" points="609.26 233.77 547.45 201.66 547.45 188.32 609.26 220.43 609.26 233.77"/><polygon class="cls-2" points="569.65 297.14 520.11 557.89 477.07 602.98 477.03 633.61 500.48 654.38 500.48 669.92 500.38 882.32 497.5 889.48 593.16 768.52 593.24 312.55 569.71 296.61 569.65 297.14"/><line class="cls-4" x1="120.76" y1="603.17" x2="120.76" y2="603.17"/><line class="cls-4" x1="120.76" y1="603.17" x2="460.71" y2="603.18"/><polygon class="cls-7" points="504.13 557.95 228.48 557.43 120.77 603.18 460.71 603.18 504.13 557.95"/><line class="cls-8" y1="257.41" y2="462.69"/><line class="cls-9" y1="510.68" y2="715.96"/><line class="cls-3" y2="205.28"/><line class="cls-4" x1="609.32" y1="323.56" x2="593.11" y2="312.61"/><path class="cls-10" d="M6776.4,7056.12h-40L6769.19,6902h40l-8.45,39.76-3.14,14.79-8.5,40-4.22,19.88Zm-12.71-22.31,11.64-54.77,1.08-5.08,10.56-49.69,1.08-5.08H6783l-25.39,119.48h5.08Z" transform="translate(-6446.87 -6552.4)"/><path class="cls-10" d="M6934.06,6941.94h-40l-3.19,15-8.45,39.75-4.23,19.88-8.5,40H6830l24.36-114.62h-39.75l8.45-39.76h119.48Zm-5.41-22.31h-99.39l-1,4.86h47.26l-24.32,114.4H6856l1.08-5.08,11.64-54.77,1-4.86,10.56-49.69h47.26Z" transform="translate(-6446.87 -6552.4)"/><line class="cls-9" x1="273.21" y1="190.49" x2="284.09" y2="194.57"/><line class="cls-4" x1="267.72" y1="220.22" x2="357.27" y2="220.22"/><path class="cls-9" d="M6994.33,6740.72v31.9h-.16v-32.23a7.32,7.32,0,0,0-14.64,0v32.23H6799.61l-.13-.06-84.81-1.26-.38-26.33a1.89,1.89,0,0,0-.09-.21v-4.08a7.48,7.48,0,0,0-15,0v93l15.3,14.86-55.38,261.23h0l-56.24,42.14.31,0v30.43h.05l-36.77,15.23,12.11,9.09.13.11v238a7.88,7.88,0,0,0-.25,1.94,7.8,7.8,0,0,0,7.8,7.8h353.05a7.79,7.79,0,0,0,7.69-6.61l109.16-138V6772.82Zm-279.79,31.88h.05v0h-.05ZM7040,7320.87l-92.87,117.44V7222.37h.11v-15.53l-23.44-20.76v-30.49h-.09l43.17-45.24,49.19-261.28h-15.86L6951,7110.35l-43.41,45.24v30.51l23.28,20.78v232H6594V7206.55h-.32L6566.49,7186h0v-30l108.82-46.21,55.39-261.27h-.11l-15.2-14.34h279L7040,6865Z" transform="translate(-6446.87 -6552.4)"/><path class="cls-11" d="M6799.48,6772.56,6731,6747l-10.88-4.08-5.88-2.21v4.08l.09.22.38,26.32Z" transform="translate(-6446.87 -6552.4)"/><line class="cls-9" x1="267.8" y1="218.9" x2="267.33" y2="218.9"/><line class="cls-9" x1="355.99" y1="220.22" x2="352.61" y2="220.16"/><line class="cls-9" x1="267.42" y1="192.58" x2="267.33" y2="186.66"/><text x="-6446.87" y="-6552.4"/><path class="cls-8" d="M6783.52,6790.32a9.67,9.67,0,0,1,3.78.76,9.9,9.9,0,0,1,5.23,5.24,9.49,9.49,0,0,1,.76,3.78v20.46h-3.43v-20.89a1.36,1.36,0,0,1,0-.4,6.69,6.69,0,0,0-.72-2.17,6.55,6.55,0,0,0-1.39-1.76,6.12,6.12,0,0,0-4.18-1.58h-4.9a6.28,6.28,0,0,0-2.29.41,6,6,0,0,0-1.93,1.17,6.55,6.55,0,0,0-1.39,1.76,6,6,0,0,0-.67,2.17,1,1,0,0,0,0,.31.23.23,0,0,1,0,.11s0,.05,0,.11v20.76h-3.43V6800.1a9.49,9.49,0,0,1,.76-3.78,10,10,0,0,1,2.09-3.13,9.63,9.63,0,0,1,3.1-2.11,9.77,9.77,0,0,1,3.83-.76Zm5.38,9.79v7.12h-15.68v-7.16a5.09,5.09,0,0,1,.43-2.07,6.2,6.2,0,0,1,1.16-1.72,5,5,0,0,1,1.7-1.15,5.3,5.3,0,0,1,2.11-.42h4.92a5.16,5.16,0,0,1,2,.38,5.6,5.6,0,0,1,1.61,1,5.16,5.16,0,0,1,1.15,1.49,5.56,5.56,0,0,1,.59,1.85.87.87,0,0,1,0,.35v.35Zm-3.43,8.16h3.43v12.29h-3.43v-8.86h-8.82v8.86h-3.43v-12.29h12.25Zm0-8.16a1.85,1.85,0,0,0-.59-1.4,1.88,1.88,0,0,0-1.36-.57h-4.91a1.87,1.87,0,0,0-1.39.57,1.91,1.91,0,0,0-.57,1.4v3.68h8.82Z" transform="translate(-6446.87 -6552.4)"/><path class="cls-8" d="M6810.5,6790.19a.79.79,0,0,1,.48,0,8,8,0,0,1,1.93.26,9.17,9.17,0,0,1,1.93.74,9,9,0,0,1,1.7,1.09l.08,0a3.1,3.1,0,0,0,.39.31,10.29,10.29,0,0,1,2.92,4.6v.05l.13.52v0a6.92,6.92,0,0,1,.21,1.61,9.4,9.4,0,0,1,0,1.3q0,.3-.06.57a3.24,3.24,0,0,1-.11.56v.09a.41.41,0,0,0,0,.19.42.42,0,0,1-.05.2.38.38,0,0,0,0,.17.58.58,0,0,1,0,.18l-.13.39a1.81,1.81,0,0,1-.18.39.35.35,0,0,1,0,.17l-.09.18a7.55,7.55,0,0,1-1.26,2.17,9.55,9.55,0,0,1-4.6,3.21l5.6,11.3h-8.73l-5.35-10.77H6804v10.77h-7.82v-30.33Zm6.34,9.11a3.77,3.77,0,0,1-.06-.39c0-.12,0-.23-.07-.35a8.41,8.41,0,0,0-.3-1l-.13-.26a2.84,2.84,0,0,0-.18-.31,2,2,0,0,1-.17-.3l-.13-.26a2.24,2.24,0,0,0-.28-.37,1.59,1.59,0,0,1-.29-.37c-.06,0-.08,0-.08-.08l-.13-.13H6815a4.19,4.19,0,0,0-.43-.39l-.09-.09a7.82,7.82,0,0,0-1.17-.73,2.56,2.56,0,0,0-.31-.14l-.26-.12-.32-.09-.33-.09a6.55,6.55,0,0,0-1.52-.21h-10.95v23.46h1v-10.76h6.73l5.35,10.76h1.08l-5.34-10.78h2.13a6.21,6.21,0,0,0,2.39-.43l.17-.09a5.58,5.58,0,0,0,2.35-1.77,1.19,1.19,0,0,0,.17-.22l0,0a1.17,1.17,0,0,0,.18-.26l.06-.11s0-.05.07-.11a.72.72,0,0,0,.17-.22V6803a0,0,0,0,0,0,0l.08-.2a1.72,1.72,0,0,1,.09-.19s0-.05,0-.07a.12.12,0,0,1,.05-.06.29.29,0,0,1,.08-.22v-.09l.05-.08a.08.08,0,0,1,0-.07.08.08,0,0,0,0-.06,5.47,5.47,0,0,0,.28-1.26,5.14,5.14,0,0,0,0-1.3Zm-1,0a1.16,1.16,0,0,1,0,.35v.78a.71.71,0,0,1,0,.2,1.54,1.54,0,0,0,0,.19l0,.09a1.1,1.1,0,0,1,0,.18.47.47,0,0,0,0,.17,2.09,2.09,0,0,1-.17.52c-.06.17-.1.29-.13.35a1.45,1.45,0,0,1-.22.43,2.6,2.6,0,0,1-.48.74,5.35,5.35,0,0,1-4.25,2.09h-9.95v-10.78h9.95a4.4,4.4,0,0,1,1.76.31,5.42,5.42,0,0,1,1.58.82,5.3,5.3,0,0,1,1.37,1.63A5.76,5.76,0,0,1,6815.84,6799.27Zm-3.39.7a1.92,1.92,0,0,0-.56-1.39,1.89,1.89,0,0,0-1.39-.57H6804v3.91h6.52a1.88,1.88,0,0,0,1.39-.56A1.92,1.92,0,0,0,6812.45,6800Z" transform="translate(-6446.87 -6552.4)"/><path class="cls-8" d="M6845.91,6812.74v7.87h-13.73a9.59,9.59,0,0,1-3.8-.76,9.93,9.93,0,0,1-5.22-5.24,9.58,9.58,0,0,1-.76-3.82V6800a9.49,9.49,0,0,1,.76-3.78,10,10,0,0,1,2.11-3.13,9.87,9.87,0,0,1,3.11-2.1,9.41,9.41,0,0,1,3.8-.76h13.73v7.82h-13.73a1.94,1.94,0,0,0-1.37.56,1.87,1.87,0,0,0-.59,1.39v10.78a1.87,1.87,0,0,0,.59,1.39,1.94,1.94,0,0,0,1.37.56Zm-2,4.43v-1h-11.77q-5.39,0-5.39-5.39V6800q0-5.39,5.39-5.39H6844v-.95h-11.77q-6.35,0-6.35,6.34v10.78q0,6.39,6.35,6.38Z" transform="translate(-6446.87 -6552.4)"/><path class="cls-8" d="M6862.46,6790.32a9.67,9.67,0,0,1,3.78.76,9.88,9.88,0,0,1,5.24,5.24,9.67,9.67,0,0,1,.76,3.78v20.46h-3.44v-20.89a1.36,1.36,0,0,1,0-.4,6.44,6.44,0,0,0-.71-2.17,7,7,0,0,0-1.39-1.76,6.16,6.16,0,0,0-4.18-1.58h-4.9a6.27,6.27,0,0,0-4.23,1.58,6.72,6.72,0,0,0-1.38,1.76,6,6,0,0,0-.68,2.17,1.37,1.37,0,0,0,0,.31.23.23,0,0,1,0,.11s0,.05,0,.11v20.76h-3.43V6800.1a9.49,9.49,0,0,1,.76-3.78,10,10,0,0,1,2.08-3.13,9.57,9.57,0,0,1,3.11-2.11,9.75,9.75,0,0,1,3.82-.76Zm5.39,9.79v7.12h-15.69v-7.16a5.1,5.1,0,0,1,.44-2.07,6,6,0,0,1,1.15-1.72,5.11,5.11,0,0,1,1.7-1.15,5.35,5.35,0,0,1,2.12-.42h4.92a5.11,5.11,0,0,1,2,.38,5.35,5.35,0,0,1,1.61,1,5.19,5.19,0,0,1,1.16,1.49,5.54,5.54,0,0,1,.58,1.85.82.82,0,0,1,.05.35v.35Zm-3.43,8.16h3.43v12.29h-3.43v-8.86h-8.82v8.86h-3.44v-12.29h12.26Zm0-8.16a2,2,0,0,0-2-2h-4.91a1.93,1.93,0,0,0-1.95,2v3.68h8.82Z" transform="translate(-6446.87 -6552.4)"/><path class="cls-8" d="M6898.61,6799.88v10.78a9.58,9.58,0,0,1-.76,3.82,9.88,9.88,0,0,1-5.24,5.24,9.72,9.72,0,0,1-3.82.76H6875.1v-30.37h13.69a9.54,9.54,0,0,1,3.82.76,9.85,9.85,0,0,1,3.13,2.1,10,10,0,0,1,2.11,3.13A9.49,9.49,0,0,1,6898.61,6799.88Zm-3.43,10.78v-10.78q0-6.35-6.39-6.34h-10.25V6817h10.25Q6895.18,6817,6895.18,6810.66Zm-1-10.81v10.8c0,3.6-1.8,5.39-5.4,5.39h-9.33v-21.55h9.33Q6894.22,6794.49,6894.22,6799.85Zm-3.43,10.81v-10.78a1.89,1.89,0,0,0-.59-1.37,1.92,1.92,0,0,0-1.41-.58h-5.87v14.68h5.87a2,2,0,0,0,1.41-.56A1.87,1.87,0,0,0,6890.79,6810.66Z" transform="translate(-6446.87 -6552.4)"/><path class="cls-8" d="M6924.81,6820.52H6901.3v-30.37h23.51V6798h-15.64v3h11.73v7.82h-11.73v3.91h15.64Zm-19.08-3.43h17.12v-1h-17.12v-10.78h13.21v-1h-13.21v-9.82h17.12v-1h-18.12v23.51Z" transform="translate(-6446.87 -6552.4)"/><path class="cls-11" d="M6742.34,7123.14a.34.34,0,0,1,0,.14,2.62,2.62,0,0,1-.78,1.62c-2.14,2.27-8.33,3.92-15.63,3.92s-13.46-1.63-15.62-3.92a2.54,2.54,0,0,1-.81-1.72v0c0-3.14,7.35-5.67,16.43-5.67,8.88,0,16.11,2.43,16.41,5.48v.05A.36.36,0,0,1,6742.34,7123.14Z" transform="translate(-6446.87 -6552.4)"/><line class="cls-4" x1="223.08" y1="578.06" x2="223.08" y2="577.88"/><path class="cls-9" d="M6742.32,7123.28a2.62,2.62,0,0,1-.78,1.62c-2.14,2.27-8.33,3.92-15.63,3.92s-13.46-1.63-15.62-3.92a2.54,2.54,0,0,1-.81-1.72v3.47c0,3.14,7.35,5.67,16.43,5.67s16.3-2.48,16.43-5.59v-.08Z" transform="translate(-6446.87 -6552.4)"/><path class="cls-11" d="M6781.21,7123.14a.66.66,0,0,1,0,.14,2.69,2.69,0,0,1-.79,1.62c-2.14,2.27-8.33,3.92-15.63,3.92s-13.46-1.63-15.61-3.92a2.55,2.55,0,0,1-.82-1.72v0c0-3.14,7.35-5.67,16.43-5.67,8.88,0,16.11,2.43,16.42,5.48v.05A.71.71,0,0,1,6781.21,7123.14Z" transform="translate(-6446.87 -6552.4)"/><path class="cls-9" d="M6781.2,7123.28a2.69,2.69,0,0,1-.79,1.62c-2.14,2.27-8.33,3.92-15.63,3.92s-13.46-1.63-15.61-3.92a2.55,2.55,0,0,1-.82-1.72v3.47c0,3.14,7.35,5.67,16.43,5.67s16.3-2.48,16.43-5.59v-3.45Z" transform="translate(-6446.87 -6552.4)"/><path class="cls-11" d="M6725.17,7136a.57.57,0,0,1,0,.13,2.68,2.68,0,0,1-.79,1.63c-2.13,2.27-8.33,3.91-15.63,3.91s-13.46-1.63-15.61-3.91a2.59,2.59,0,0,1-.82-1.73v0c0-3.14,7.35-5.68,16.43-5.68,8.88,0,16.12,2.44,16.42,5.48v.05A.76.76,0,0,1,6725.17,7136Z" transform="translate(-6446.87 -6552.4)"/><path class="cls-9" d="M6725.16,7136.09a2.68,2.68,0,0,1-.79,1.63c-2.13,2.27-8.33,3.91-15.63,3.91s-13.46-1.63-15.61-3.91a2.59,2.59,0,0,1-.82-1.73v3.47c0,3.14,7.35,5.67,16.43,5.67s16.3-2.48,16.43-5.59v-3.45Z" transform="translate(-6446.87 -6552.4)"/><path class="cls-11" d="M6764,7136a.57.57,0,0,1,0,.13,2.68,2.68,0,0,1-.79,1.63c-2.13,2.27-8.32,3.91-15.63,3.91s-13.46-1.63-15.61-3.91a2.58,2.58,0,0,1-.81-1.73v0c0-3.14,7.35-5.68,16.42-5.68,8.88,0,16.12,2.44,16.42,5.48v.05A.76.76,0,0,1,6764,7136Z" transform="translate(-6446.87 -6552.4)"/><path class="cls-9" d="M6764,7136.09a2.68,2.68,0,0,1-.79,1.63c-2.13,2.27-8.32,3.91-15.63,3.91s-13.46-1.63-15.61-3.91a2.58,2.58,0,0,1-.81-1.73v3.47c0,3.14,7.35,5.67,16.42,5.67s16.3-2.48,16.43-5.59v-3.45Z" transform="translate(-6446.87 -6552.4)"/><path class="cls-11" d="M6880.18,7124.16a.53.53,0,0,1,0,.13,2.61,2.61,0,0,1-.79,1.63c-2.13,2.27-8.32,3.92-15.62,3.92s-13.46-1.63-15.62-3.92a2.56,2.56,0,0,1-.81-1.72v0c0-3.14,7.35-5.67,16.43-5.67,8.88,0,16.11,2.43,16.41,5.48v.05A.61.61,0,0,1,6880.18,7124.16Z" transform="translate(-6446.87 -6552.4)"/><path class="cls-9" d="M6880.17,7124.29a2.61,2.61,0,0,1-.79,1.63c-2.13,2.27-8.32,3.92-15.62,3.92s-13.46-1.63-15.62-3.92a2.56,2.56,0,0,1-.81-1.72v3.47c0,3.14,7.35,5.67,16.43,5.67s16.3-2.48,16.42-5.59v-3.46Z" transform="translate(-6446.87 -6552.4)"/><path class="cls-11" d="M6919.06,7124.16a.53.53,0,0,1,0,.13,2.71,2.71,0,0,1-.79,1.63c-2.14,2.27-8.33,3.92-15.63,3.92s-13.46-1.63-15.61-3.92a2.57,2.57,0,0,1-.82-1.72v0c0-3.14,7.35-5.67,16.43-5.67,8.88,0,16.11,2.43,16.42,5.48v.05A.61.61,0,0,1,6919.06,7124.16Z" transform="translate(-6446.87 -6552.4)"/><path class="cls-9" d="M6919.05,7124.29a2.71,2.71,0,0,1-.79,1.63c-2.14,2.27-8.33,3.92-15.63,3.92s-13.46-1.63-15.61-3.92a2.57,2.57,0,0,1-.82-1.72v3.47c0,3.14,7.35,5.67,16.43,5.67s16.3-2.48,16.43-5.59v-3.46Z" transform="translate(-6446.87 -6552.4)"/><path class="cls-11" d="M6863,7137a.57.57,0,0,1,0,.13,2.74,2.74,0,0,1-.79,1.63c-2.14,2.26-8.33,3.91-15.63,3.91s-13.46-1.63-15.61-3.91a2.59,2.59,0,0,1-.82-1.73v0c0-3.15,7.35-5.68,16.43-5.68,8.88,0,16.11,2.44,16.42,5.48v.05A.76.76,0,0,1,6863,7137Z" transform="translate(-6446.87 -6552.4)"/><path class="cls-9" d="M6863,7137.11a2.74,2.74,0,0,1-.79,1.63c-2.14,2.26-8.33,3.91-15.63,3.91s-13.46-1.63-15.61-3.91a2.59,2.59,0,0,1-.82-1.73v3.47c0,3.14,7.35,5.67,16.43,5.67s16.3-2.48,16.43-5.59v-3.45Z" transform="translate(-6446.87 -6552.4)"/><path class="cls-11" d="M6901.89,7137a.57.57,0,0,1,0,.13,2.68,2.68,0,0,1-.79,1.63c-2.13,2.26-8.32,3.91-15.63,3.91s-13.46-1.63-15.61-3.91a2.58,2.58,0,0,1-.81-1.73v0c0-3.15,7.35-5.68,16.42-5.68,8.88,0,16.12,2.44,16.42,5.48v.05A.76.76,0,0,1,6901.89,7137Z" transform="translate(-6446.87 -6552.4)"/><path class="cls-9" d="M6901.88,7137.11a2.68,2.68,0,0,1-.79,1.63c-2.13,2.26-8.32,3.91-15.63,3.91s-13.46-1.63-15.61-3.91a2.58,2.58,0,0,1-.81-1.73v3.47c0,3.14,7.35,5.67,16.42,5.67s16.3-2.48,16.43-5.59v-3.45Z" transform="translate(-6446.87 -6552.4)"/><polyline class="cls-4" points="274.37 573.81 274.37 573.87 274.37 574.17"/><ellipse class="cls-9" cx="220.48" cy="579.42" rx="21.53" ry="8.48"/><ellipse class="cls-11" cx="220.52" cy="579.15" rx="17.95" ry="7.13"/><path class="cls-2" d="M218.21,566.13H221a.76.76,0,0,1,.76.76v11.46a0,0,0,0,1,0,0h-4.31a0,0,0,0,1,0,0V566.89A.76.76,0,0,1,218.21,566.13Z"/><circle class="cls-12" cx="219.55" cy="566.65" r="3.85"/><ellipse class="cls-9" cx="361.76" cy="578.31" rx="21.53" ry="8.48"/><ellipse class="cls-11" cx="361.8" cy="578.04" rx="17.95" ry="7.13"/><path class="cls-2" d="M359.5,565.51h2.8a.76.76,0,0,1,.76.76v11.46a0,0,0,0,1,0,0h-4.31a0,0,0,0,1,0,0V566.27A.76.76,0,0,1,359.5,565.51Z"/><circle class="cls-12" cx="360.83" cy="566.04" r="3.85"/><path class="cls-8" d="M7220.88,6853.49a29.58,29.58,0,0,1,15.7,4.53,43.85,43.85,0,0,1,13,12.54,64.55,64.55,0,0,1,8.75,18.62,78.63,78.63,0,0,1,3.16,22.5v121.8h-14.26V6909.09a11.13,11.13,0,0,1-.18-2.33,51.36,51.36,0,0,0-3-12.93,40.23,40.23,0,0,0-5.76-10.47,26.44,26.44,0,0,0-7.92-7,19.09,19.09,0,0,0-9.45-2.46h-20.34a19.6,19.6,0,0,0-9.54,2.46,25.91,25.91,0,0,0-8,7,40.23,40.23,0,0,0-5.76,10.47,46.58,46.58,0,0,0-2.79,12.93,8.15,8.15,0,0,0-.18,1.81,1.38,1.38,0,0,1-.09.65,1.41,1.41,0,0,0-.09.65v123.61H7159.9v-121.8a78.28,78.28,0,0,1,3.16-22.5,65.47,65.47,0,0,1,8.66-18.62,42.66,42.66,0,0,1,12.9-12.54,29.85,29.85,0,0,1,15.87-4.53Zm22.38,58.24v42.36h-65.14v-42.56a41.33,41.33,0,0,1,1.81-12.33,38.64,38.64,0,0,1,4.79-10.25,22.7,22.7,0,0,1,7.06-6.87,16.68,16.68,0,0,1,8.78-2.47H7221a15.84,15.84,0,0,1,8.14,2.22,23.91,23.91,0,0,1,6.7,5.88,31.44,31.44,0,0,1,4.79,8.88,44.21,44.21,0,0,1,2.45,11,8.1,8.1,0,0,1,.18,2.09v2.09ZM7229,6960.29h14.26v73.19H7229v-52.76h-36.63v52.76h-14.25v-73.19H7229Zm0-48.52a13.94,13.94,0,0,0-2.43-8.34c-1.63-2.26-3.52-3.39-5.69-3.39h-20.39a6.87,6.87,0,0,0-5.77,3.39,14.33,14.33,0,0,0-2.35,8.34v21.89H7229Z" transform="translate(-6446.87 -6552.4)"/><path class="cls-8" d="M7332.93,6852.72a2,2,0,0,1,2,0,23.25,23.25,0,0,1,8,1.55,31.4,31.4,0,0,1,8,4.39,39.07,39.07,0,0,1,7,6.47l.37.26a13.12,13.12,0,0,0,1.62,1.81q8.66,11.39,12.09,27.41v.26l.54,3.1v.26a56.12,56.12,0,0,1,.9,9.57q.18,3.87,0,7.76-.18,1.8-.27,3.36a24.77,24.77,0,0,1-.45,3.36v.52a3.49,3.49,0,0,0-.18,1.16,3.49,3.49,0,0,1-.18,1.16,3.16,3.16,0,0,0-.18,1,3.06,3.06,0,0,1-.18,1l-.54,2.33a14.76,14.76,0,0,1-.72,2.33,3.38,3.38,0,0,1-.18,1c-.13.35-.25.69-.37,1a51.85,51.85,0,0,1-5.23,12.93q-7.57,13.71-19.12,19.13l23.27,67.24h-36.26l-22.2-64.13h-4.87v64.13h-32.47v-180.5Zm26.34,54.18c-.12-.85-.21-1.63-.27-2.31s-.15-1.38-.27-2.07a54.33,54.33,0,0,0-1.27-5.92l-.54-1.55a18.67,18.67,0,0,0-.72-1.8c-.24-.52-.48-1.12-.72-1.81l-.54-1.54a11.7,11.7,0,0,0-1.18-2.19,12,12,0,0,1-1.17-2.19c-.24,0-.36-.17-.36-.52l-.54-.77h-.18a24.49,24.49,0,0,0-1.8-2.32l-.37-.52a32.75,32.75,0,0,0-4.87-4.38,8.74,8.74,0,0,0-1.26-.77l-1.08-.77c-.48-.17-.93-.35-1.36-.52l-1.35-.52a19.39,19.39,0,0,0-6.31-1.28h-45.47v139.64h4v-64h28l22.2,64h4.51l-22.19-64.13h8.84a19,19,0,0,0,9.92-2.58l.72-.52a26.49,26.49,0,0,0,9.74-10.56,6.47,6.47,0,0,0,.73-1.29l.18-.26a6.5,6.5,0,0,0,.72-1.55,3.56,3.56,0,0,1,.27-.64,3.15,3.15,0,0,0,.27-.65,5.63,5.63,0,0,0,.72-1.28v-.52c.12,0,.18-.08.18-.26.12-.34.24-.73.36-1.16s.24-.81.36-1.16a.77.77,0,0,0,.18-.38.79.79,0,0,1,.18-.39,2.23,2.23,0,0,1,.36-1.29v-.51l.18-.52a.58.58,0,0,1,.1-.38.8.8,0,0,0,.09-.39,43.42,43.42,0,0,0,1.17-7.47,47.63,47.63,0,0,0-.09-7.74Zm-4.15-.14a9.55,9.55,0,0,1,.18,2.07v4.66a8.52,8.52,0,0,1-.09,1.16,8.52,8.52,0,0,0-.09,1.16l-.18.52a6.09,6.09,0,0,1-.09,1,6,6,0,0,0-.09,1,20.8,20.8,0,0,1-.72,3.1c-.25,1-.43,1.73-.55,2.07a11,11,0,0,1-.9,2.59,19.3,19.3,0,0,1-2,4.39,26.47,26.47,0,0,1-7.67,9.05,16.59,16.59,0,0,1-10,3.37h-41.32v-64.14h41.32a14,14,0,0,1,7.3,1.82,22.08,22.08,0,0,1,6.59,4.91,31.21,31.21,0,0,1,5.68,9.7A44.36,44.36,0,0,1,7355.12,6906.76Zm-14.07,4.14a14.13,14.13,0,0,0-2.35-8.27,6.89,6.89,0,0,0-5.77-3.37h-27.07v23.28h27.07a6.88,6.88,0,0,0,5.77-3.36A14.14,14.14,0,0,0,7341.05,6910.9Z" transform="translate(-6446.87 -6552.4)"/><path class="cls-8" d="M7480,6986.93v46.8h-57a29.4,29.4,0,0,1-15.79-4.52,44.3,44.3,0,0,1-12.9-12.54,64.16,64.16,0,0,1-8.75-18.62,79.19,79.19,0,0,1-3.16-22.76v-64.13a78.28,78.28,0,0,1,3.16-22.5,64.29,64.29,0,0,1,8.75-18.62,44.3,44.3,0,0,1,12.9-12.54A29.48,29.48,0,0,1,7423,6853h57v46.54h-57c-2.17,0-4.06,1.13-5.69,3.36a13.8,13.8,0,0,0-2.43,8.28v64.13a13.75,13.75,0,0,0,2.43,8.28c1.63,2.24,3.52,3.36,5.69,3.36Zm-8.12,26.37v-5.94H7423q-22.38,0-22.38-32.07v-64.13q0-32.07,22.38-32.07h48.89v-5.69H7423q-26.35,0-26.34,37.76v64.13q0,38,26.34,38Z" transform="translate(-6446.87 -6552.4)"/><path class="cls-8" d="M7548.71,6853.49a29.58,29.58,0,0,1,15.7,4.53,43.85,43.85,0,0,1,13,12.54,64.29,64.29,0,0,1,8.75,18.62,78.28,78.28,0,0,1,3.16,22.5v121.8h-14.25V6909.09a10.48,10.48,0,0,1-.18-2.33,51.36,51.36,0,0,0-3-12.93,40.23,40.23,0,0,0-5.76-10.47,26.32,26.32,0,0,0-7.92-7,19.09,19.09,0,0,0-9.45-2.46h-20.34a19.6,19.6,0,0,0-9.54,2.46,25.91,25.91,0,0,0-8,7,40.23,40.23,0,0,0-5.76,10.47,46.94,46.94,0,0,0-2.79,12.93,8.15,8.15,0,0,0-.18,1.81,1.38,1.38,0,0,1-.09.65,1.41,1.41,0,0,0-.09.65v123.61h-14.25v-121.8a78.28,78.28,0,0,1,3.16-22.5,65.75,65.75,0,0,1,8.66-18.62,42.66,42.66,0,0,1,12.9-12.54,29.86,29.86,0,0,1,15.88-4.53Zm22.38,58.24v42.36H7506v-42.56a41.65,41.65,0,0,1,1.81-12.33,39,39,0,0,1,4.79-10.25,22.81,22.81,0,0,1,7.06-6.87,16.68,16.68,0,0,1,8.78-2.47h20.44a15.84,15.84,0,0,1,8.14,2.22,23.77,23.77,0,0,1,6.7,5.88,31.19,31.19,0,0,1,4.79,8.88,44.21,44.21,0,0,1,2.45,11,8.1,8.1,0,0,1,.18,2.09v2.09Zm-14.26,48.56h14.26v73.19h-14.26v-52.76h-36.62v52.76H7506v-73.19h50.88Zm0-48.52a13.94,13.94,0,0,0-2.43-8.34c-1.63-2.26-3.52-3.39-5.69-3.39h-20.38a6.87,6.87,0,0,0-5.78,3.39,14.33,14.33,0,0,0-2.34,8.34v21.89h36.62Z" transform="translate(-6446.87 -6552.4)"/><path class="cls-8" d="M7698.83,6910.38v64.14a79.47,79.47,0,0,1-3.16,22.75,64.42,64.42,0,0,1-8.75,18.62,43.6,43.6,0,0,1-13,12.54,29.89,29.89,0,0,1-15.88,4.53h-56.83V6852.2h56.83a29.89,29.89,0,0,1,15.88,4.53,43.6,43.6,0,0,1,13,12.54,64.42,64.42,0,0,1,8.75,18.62A78.61,78.61,0,0,1,7698.83,6910.38Zm-14.26,64.14v-64.14q0-37.74-26.52-37.75h-42.58v139.9h42.58Q7684.57,7012.53,7684.57,6974.52Zm-4-64.33v64.26q0,32.13-22.43,32.13h-38.73V6878.32h38.73Q7680.59,6878.32,7680.6,6910.19Zm-14.25,64.33v-64.14a13.9,13.9,0,0,0-2.43-8.14q-2.44-3.49-5.87-3.49h-24.36v87.4h24.36a7.13,7.13,0,0,0,5.87-3.36A13.74,13.74,0,0,0,7666.35,6974.52Z" transform="translate(-6446.87 -6552.4)"/><path class="cls-8" d="M7807.62,7033.22H7710V6852.46h97.61V6899h-64.95v17.58h48.71v46.55h-48.71v23.27h64.95Zm-79.21-20.43h71.09v-5.95h-71.09v-64.13h54.85V6937h-54.85v-58.44h71.09v-5.69h-75.23v139.9Z" transform="translate(-6446.87 -6552.4)"/><path class="cls-8" d="M7219,7290.53h-55.95V7110H7219v180.5Zm-24.42-26.12V7130.2h-7.11v139.9h7.11Z" transform="translate(-6446.87 -6552.4)"/><path class="cls-8" d="M7405.73,7156.84h-56v134.21h-55.64V7156.84h-55.65v-46.55h167.25Zm-14.22-26.12H7252.39v5.69h66.16v133.95h6.8V7136.41h66.16Z" transform="translate(-6446.87 -6552.4)"/><text x="-6446.87" y="-6552.4"/></svg>